<svg width="291" height="295" viewBox="0 0 291 295" fill="none" xmlns="http://www.w3.org/2000/svg">
<g filter="url(#filter0_d_3_174)">
<mask id="mask0_3_174" style="mask-type:alpha" maskUnits="userSpaceOnUse" x="4" y="4" width="283" height="283">
<circle cx="145.5" cy="145.5" r="141.5" fill="#D9D9D9"/>
</mask>
<g mask="url(#mask0_3_174)">
<rect x="-65" y="-50" width="396" height="396" fill="white"/>
</g>
<path d="M34.675 124.95L48.55 125.025C55.8 125.025 62.175 127.65 67.675 132.9C73.175 138.1 75.925 144.525 75.925 152.175C75.925 159.775 73.225 166.3 67.825 171.75C62.475 177.2 55.975 179.925 48.325 179.925H34.6C31.55 179.925 29.65 179.3 28.9 178.05C28.3 177 28 175.4 28 173.25V131.55C28 130.35 28.025 129.475 28.075 128.925C28.175 128.375 28.425 127.725 28.825 126.975C29.525 125.625 31.475 124.95 34.675 124.95ZM48.55 166.65C52.15 166.65 55.4 165.325 58.3 162.675C61.2 159.975 62.65 156.6 62.65 152.55C62.65 148.5 61.225 145.125 58.375 142.425C55.575 139.675 52.275 138.3 48.475 138.3H41.275V166.65H48.55ZM106.458 144.675C106.758 141.875 108.733 140.475 112.383 140.475C114.333 140.475 115.783 140.625 116.733 140.925C117.683 141.225 118.333 141.75 118.683 142.5C119.083 143.25 119.308 143.925 119.358 144.525C119.458 145.075 119.508 145.925 119.508 147.075V173.325C119.508 174.475 119.458 175.35 119.358 175.95C119.308 176.5 119.108 177.15 118.758 177.9C118.058 179.2 116.333 179.85 113.583 179.85C110.883 179.85 109.058 179.525 108.108 178.875C107.208 178.175 106.683 177.175 106.533 175.875C104.683 178.525 101.583 179.85 97.2326 179.85C92.9326 179.85 88.9326 177.875 85.2326 173.925C81.5326 169.975 79.6826 165.4 79.6826 160.2C79.6826 154.95 81.5326 150.375 85.2326 146.475C88.9826 142.525 93.0826 140.55 97.5326 140.55C99.2326 140.55 100.783 140.85 102.183 141.45C103.583 142.05 104.558 142.625 105.108 143.175C105.658 143.675 106.108 144.175 106.458 144.675ZM92.8076 160.275C92.8076 161.925 93.4576 163.425 94.7576 164.775C96.0576 166.075 97.6326 166.725 99.4826 166.725C101.333 166.725 102.858 166.05 104.058 164.7C105.308 163.35 105.933 161.875 105.933 160.275C105.933 158.625 105.333 157.1 104.133 155.7C102.983 154.3 101.408 153.6 99.4076 153.6C97.4576 153.6 95.8576 154.3 94.6076 155.7C93.4076 157.1 92.8076 158.625 92.8076 160.275Z" fill="#F4BB8A"/>
<path d="M147.16 140.55C151.61 140.55 155.685 142.525 159.385 146.475C163.135 150.425 165.01 155.025 165.01 160.275C165.01 165.475 163.16 170.05 159.46 174C155.76 177.9 151.785 179.85 147.535 179.85C143.285 179.85 140.26 178.65 138.46 176.25C138.06 178.7 135.91 179.925 132.01 179.925C128.86 179.925 126.935 179.25 126.235 177.9C125.885 177.15 125.66 176.5 125.56 175.95C125.51 175.35 125.485 174.475 125.485 173.325V128.55C125.485 127.4 125.51 126.55 125.56 126C125.66 125.4 125.885 124.75 126.235 124.05C126.935 122.7 128.885 122.025 132.085 122.025C135.235 122.025 137.135 122.7 137.785 124.05C138.185 124.8 138.41 125.475 138.46 126.075C138.56 126.625 138.61 127.475 138.61 128.625V144.225C140.61 141.775 143.46 140.55 147.16 140.55ZM140.56 164.775C141.81 166.125 143.36 166.8 145.21 166.8C147.06 166.8 148.635 166.125 149.935 164.775C151.235 163.425 151.885 161.925 151.885 160.275C151.885 158.625 151.285 157.125 150.085 155.775C148.885 154.375 147.285 153.675 145.285 153.675C143.285 153.675 141.685 154.375 140.485 155.775C139.335 157.175 138.76 158.7 138.76 160.35C138.76 161.95 139.36 163.425 140.56 164.775ZM195.52 144.675C195.82 141.875 197.795 140.475 201.445 140.475C203.395 140.475 204.845 140.625 205.795 140.925C206.745 141.225 207.395 141.75 207.745 142.5C208.145 143.25 208.37 143.925 208.42 144.525C208.52 145.075 208.57 145.925 208.57 147.075V173.325C208.57 174.475 208.52 175.35 208.42 175.95C208.37 176.5 208.17 177.15 207.82 177.9C207.12 179.2 205.395 179.85 202.645 179.85C199.945 179.85 198.12 179.525 197.17 178.875C196.27 178.175 195.745 177.175 195.595 175.875C193.745 178.525 190.645 179.85 186.295 179.85C181.995 179.85 177.995 177.875 174.295 173.925C170.595 169.975 168.745 165.4 168.745 160.2C168.745 154.95 170.595 150.375 174.295 146.475C178.045 142.525 182.145 140.55 186.595 140.55C188.295 140.55 189.845 140.85 191.245 141.45C192.645 142.05 193.62 142.625 194.17 143.175C194.72 143.675 195.17 144.175 195.52 144.675ZM181.87 160.275C181.87 161.925 182.52 163.425 183.82 164.775C185.12 166.075 186.695 166.725 188.545 166.725C190.395 166.725 191.92 166.05 193.12 164.7C194.37 163.35 194.995 161.875 194.995 160.275C194.995 158.625 194.395 157.1 193.195 155.7C192.045 154.3 190.47 153.6 188.47 153.6C186.52 153.6 184.92 154.3 183.67 155.7C182.47 157.1 181.87 158.625 181.87 160.275Z" fill="#C19A87"/>
<path d="M214.548 128.475C214.548 127.325 214.573 126.475 214.623 125.925C214.723 125.325 214.948 124.65 215.298 123.9C215.998 122.55 217.948 121.875 221.148 121.875C224.198 121.875 226.098 122.55 226.848 123.9C227.248 124.65 227.473 125.325 227.523 125.925C227.623 126.525 227.673 127.4 227.673 128.55V163.275C227.673 165.075 227.823 166.225 228.123 166.725C228.423 167.175 229.073 167.4 230.073 167.4C231.123 167.4 231.823 167.45 232.173 167.55C232.523 167.6 232.948 167.8 233.448 168.15C234.448 168.8 234.948 170.575 234.948 173.475C234.948 176.625 234.448 178.55 233.448 179.25C232.148 180.15 229.048 180.3 224.148 179.7C220.298 179.2 217.798 177.925 216.648 175.875C215.248 173.425 214.548 169.525 214.548 164.175V128.475ZM239.084 147.075C239.084 145.925 239.109 145.075 239.159 144.525C239.259 143.925 239.484 143.25 239.834 142.5C240.534 141.2 242.484 140.55 245.684 140.55C248.084 140.55 249.784 140.975 250.784 141.825C251.634 142.525 252.084 143.6 252.134 145.05C252.184 145.55 252.209 146.275 252.209 147.225V173.475C252.209 174.625 252.159 175.5 252.059 176.1C252.009 176.65 251.784 177.3 251.384 178.05C250.734 179.35 248.809 180 245.609 180C242.459 180 240.534 179.325 239.834 177.975C239.484 177.225 239.259 176.575 239.159 176.025C239.109 175.475 239.084 174.6 239.084 173.4V147.075ZM251.384 133.2C251.034 133.9 250.384 134.4 249.434 134.7C248.484 135 247.209 135.15 245.609 135.15C244.059 135.15 242.809 135 241.859 134.7C240.909 134.4 240.234 133.875 239.834 133.125C239.484 132.375 239.259 131.725 239.159 131.175C239.109 130.575 239.084 129.7 239.084 128.55C239.084 127.4 239.109 126.55 239.159 126C239.259 125.4 239.484 124.75 239.834 124.05C240.534 122.7 242.484 122.025 245.684 122.025C248.834 122.025 250.734 122.7 251.384 124.05C251.784 124.8 252.009 125.475 252.059 126.075C252.159 126.625 252.209 127.475 252.209 128.625C252.209 129.775 252.159 130.65 252.059 131.25C252.009 131.8 251.784 132.45 251.384 133.2Z" fill="#B95700"/>
</g>
<defs>
<filter id="filter0_d_3_174" x="0" y="4" width="291" height="291" filterUnits="userSpaceOnUse" color-interpolation-filters="sRGB">
<feFlood flood-opacity="0" result="BackgroundImageFix"/>
<feColorMatrix in="SourceAlpha" type="matrix" values="0 0 0 0 0 0 0 0 0 0 0 0 0 0 0 0 0 0 127 0" result="hardAlpha"/>
<feOffset dy="4"/>
<feGaussianBlur stdDeviation="2"/>
<feComposite in2="hardAlpha" operator="out"/>
<feColorMatrix type="matrix" values="0 0 0 0 0 0 0 0 0 0 0 0 0 0 0 0 0 0 0.25 0"/>
<feBlend mode="normal" in2="BackgroundImageFix" result="effect1_dropShadow_3_174"/>
<feBlend mode="normal" in="SourceGraphic" in2="effect1_dropShadow_3_174" result="shape"/>
</filter>
</defs>
</svg>
