<svg width="267" height="267" xmlns="http://www.w3.org/2000/svg" xmlns:xlink="http://www.w3.org/1999/xlink" xml:space="preserve" overflow="hidden"><g transform="translate(-213 -185)"><path d="M119.082 250.713C97.455 230.688 75.9615 220.275 47.3925 216.403 39.783 215.335 37.5135 214.401 34.8435 211.464L31.773 207.726 32.4405 177.688C33.108 144.447 35.1105 131.898 42.8535 109.87 54.6015 76.896 76.2285 46.3245 102.795 25.2315 116.679 14.2845 129.228 6.675 133.5 6.675 137.772 6.675 150.321 14.2845 164.205 25.2315 190.771 46.3245 212.398 76.896 224.146 109.87 231.889 131.898 233.892 144.447 234.559 177.688L235.227 207.726 232.156 211.464C229.486 214.401 227.217 215.335 219.607 216.403 191.038 220.275 169.545 230.688 147.918 250.713 139.774 258.189 136.704 260.325 133.5 260.325 130.296 260.325 127.225 258.189 119.082 250.713ZM181.56 170.88C184.764 167.676 186.099 163.003 184.63 159.265 182.761 154.593 130.696 98.79 127.359 97.989 121.351 96.5205 118.147 98.6565 101.727 115.21 87.309 129.895 85.44 132.298 85.44 136.303 85.44 142.177 88.377 146.449 93.3165 147.518 98.79 148.719 101.86 146.85 113.742 135.102 122.82 126.291 124.422 125.223 126.024 126.825 126.958 127.893 135.102 136.971 144.18 146.85 167.142 172.215 168.61 173.55 174.217 173.55 177.154 173.55 179.958 172.482 181.56 170.88Z" fill="#00B050" transform="matrix(1 0 0 -1 213 452)"/></g></svg>