<?xml version="1.0" standalone="no"?>
<!DOCTYPE svg PUBLIC "-//W3C//DTD SVG 20010904//EN"
 "http://www.w3.org/TR/2001/REC-SVG-20010904/DTD/svg10.dtd">
<svg version="1.0" xmlns="http://www.w3.org/2000/svg"
 width="200.000000pt" height="200.000000pt" viewBox="0 0 200.000000 200.000000"
 preserveAspectRatio="xMidYMid meet">

<g transform="translate(0.000000,200.000000) scale(0.100000,-0.100000)"
fill="#000000" stroke="none">
<path d="M892 1878 c-162 -150 -323 -228 -537 -257 -57 -8 -74 -15 -94 -37
l-23 -28 5 -225 c5 -249 20 -343 78 -508 88 -247 250 -476 449 -634 104 -82
198 -139 230 -139 32 0 126 57 230 139 199 158 361 387 449 634 58 165 73 259
78 508 l5 225 -23 28 c-20 22 -37 29 -94 37 -214 29 -375 107 -537 257 -61 56
-84 72 -108 72 -24 0 -47 -16 -108 -72z m468 -598 c24 -24 34 -59 23 -87 -14
-35 -404 -453 -429 -459 -45 -11 -69 5 -192 129 -108 110 -122 128 -122 158 0
44 22 76 59 84 41 9 64 -5 153 -93 68 -66 80 -74 92 -62 7 8 68 76 136 150
172 190 183 200 225 200 22 0 43 -8 55 -20z"/>
</g>
</svg>
