<svg width="720" height="720" xmlns="http://www.w3.org/2000/svg" xmlns:xlink="http://www.w3.org/1999/xlink" xml:space="preserve" overflow="hidden"><g transform="translate(-606 22)"><path d="M965.82 553.482 966.045 553.617 966.326 553.449C972.514 549.601 979.59 545.045 987.184 539.949 1009.1 525.295 1030.21 509.461 1050.41 492.519 1105.87 445.685 1138.92 400.786 1138.92 364.336L1138.92 203.034C1138.92 184.359 1141.07 188.904 1134.83 187.565 1132.8 187.126 1130.78 186.744 1125.98 185.878 1099.53 181.04 1073.07 173.503 1047.65 162.702 1022.05 151.841 997.286 139.116 973.549 124.633 971.123 123.089 968.642 121.634 966.112 120.268 964.762 120.943 963.052 121.955 958.688 124.633 934.878 139.158 910.017 151.887 884.314 162.714 858.934 173.491 807.791 187.745 781.32 192.594 773.287 194.056 765.266 188.791 763.792 180.815 762.307 172.85 767.932 165.189 775.965 163.715 800.378 159.249 849.45 145.58 872.704 135.702 897.058 125.449 920.613 113.393 943.174 99.635 955.594 92.0413 958.665 90.5338 965.989 90.5 973.414 90.4662 976.676 92.0525 989.074 99.6462 1011.57 113.364 1035.04 125.415 1059.3 135.702 1082.56 145.591 1106.93 152.533 1131.34 156.999 1136.46 157.933 1138.63 158.349 1141.06 158.866 1168.48 164.739 1168.5 164.75 1168.5 203.124L1168.5 364.336C1168.5 412.194 1131.24 462.808 1069.57 514.872 1030.56 547.812 974.438 585.5 966 585.5 957.574 585.5 902.032 547.768 863.13 514.704 801.862 462.65 764.479 412.16 763.5 364.64L763.5 178.419C763.5 170.319 770.126 166.944 778.294 166.944 786.429 166.919 793.045 173.49 793.076 181.625L793.076 364.336C793.83 400.494 827.13 445.46 882.367 492.406 902.433 509.354 923.388 525.22 945.142 539.938 952.68 545.056 959.689 549.612 965.82 553.482ZM1089.77 251.375 1097.85 259.554C1102.18 263.936 1102.18 270.989 1097.85 275.371L950.419 424.625C946.053 429.046 938.93 429.09 934.509 424.724 934.476 424.691 934.443 424.658 934.41 424.625L856.65 345.909C852.318 341.526 852.318 334.474 856.65 330.091L864.727 321.913C869.097 317.495 876.219 317.455 880.637 321.825 880.667 321.853 880.696 321.883 880.725 321.913L942.409 384.35 1073.78 251.375C1078.14 246.957 1085.27 246.918 1089.68 251.287 1089.71 251.316 1089.74 251.345 1089.77 251.375Z" stroke="#00B050" stroke-width="0.703125" fill="#00B050"/></g></svg>