<svg width="421" height="512" xmlns="http://www.w3.org/2000/svg" xmlns:xlink="http://www.w3.org/1999/xlink" xml:space="preserve" overflow="hidden"><g transform="translate(-756 -85)"><path d="M359.821 575.483 360.046 575.618 360.327 575.45C366.514 571.602 373.591 567.046 381.184 561.95 403.102 547.296 424.209 531.462 444.409 514.52 499.872 467.686 532.925 422.787 532.925 386.337L532.925 225.034C532.925 206.359 535.073 210.904 528.83 209.565 526.805 209.127 524.78 208.744 519.976 207.878 493.527 203.04 467.067 195.503 441.653 184.703 416.054 173.841 391.287 161.116 367.549 146.633 365.124 145.089 362.643 143.634 360.113 142.268 358.763 142.943 357.053 143.955 352.688 146.633 328.878 161.158 304.018 173.887 278.314 184.714 252.934 195.492 201.792 209.745 175.32 214.594 167.288 216.057 159.266 210.792 157.793 202.815 156.308 194.85 161.933 187.189 169.965 185.715 194.378 181.249 243.45 167.58 266.704 157.703 291.058 147.449 314.614 135.393 337.174 121.635 349.594 114.041 352.666 112.534 359.989 112.5 367.414 112.466 370.677 114.053 383.074 121.646 405.57 135.364 429.04 147.415 453.297 157.703 476.562 167.592 500.93 174.533 525.342 178.999 530.461 179.933 532.632 180.349 535.062 180.867 562.478 186.739 562.501 186.75 562.501 225.124L562.501 386.337C562.501 434.194 525.241 484.808 463.568 536.873 424.564 569.813 368.438 607.501 360.001 607.501 351.574 607.501 296.033 569.768 257.13 536.705 195.863 484.651 158.479 434.161 157.5 386.641L157.5 200.419C157.5 192.319 164.126 188.944 172.294 188.944 180.429 188.919 187.046 195.49 187.077 203.625L187.077 386.337C187.83 422.494 221.13 467.461 276.368 514.407 296.434 531.354 317.388 547.221 339.143 561.938 346.681 567.057 353.689 571.613 359.821 575.483ZM483.773 273.375 491.851 281.554C496.183 285.937 496.183 292.989 491.851 297.372L344.419 446.626C340.054 451.046 332.93 451.091 328.51 446.725 328.477 446.692 328.444 446.659 328.41 446.626L250.65 367.909C246.318 363.527 246.318 356.474 250.65 352.092L258.728 343.913C263.097 339.495 270.22 339.456 274.638 343.825 274.667 343.854 274.697 343.883 274.725 343.913L336.409 406.351 467.776 273.375C472.145 268.958 479.268 268.918 483.685 273.288 483.715 273.316 483.744 273.346 483.773 273.375Z" stroke="#00B050" stroke-width="0.703126" fill="#00B050" transform="matrix(1.00036 0 0 1 605.098 -22.4026)"/></g></svg>