<svg width="198" height="208" viewBox="0 0 198 208" fill="none" xmlns="http://www.w3.org/2000/svg">
<g clip-path="url(#clip0_42_517)">
<path d="M148.132 63.0347C144.853 61.3561 141.553 60.4564 134.949 58.664C131.608 57.7574 127.191 56.5751 121.22 55.8237C117.27 55.3273 114.372 55.2722 108.58 55.1688C97.8449 54.9723 96.5559 55.7306 95.9406 56.6992C94.6 58.8157 97.2915 60.6908 96.8137 66.0957C96.4287 70.4319 94.3662 72.9724 95.3974 73.8513C96.1021 74.4546 97.1815 73.3619 100.626 72.8689C102.609 72.5863 104.18 72.669 105.854 72.7586C107.522 72.8483 107.597 72.9724 111.519 73.4136C113.094 73.5928 114.235 73.7031 115.768 73.8513C119.02 74.165 121.375 74.3477 121.98 74.396C126.438 74.7613 131.065 75.7747 137.232 77.126C140.717 77.8912 142.12 78.2669 150.961 80.404C162.484 83.1892 163.47 83.3719 163.996 82.6963C165.997 80.1317 158.812 68.5085 148.132 63.0347Z" fill="#FDA424"/>
<path d="M95.0435 73.6548C95.0435 74.0237 96.7003 73.9478 98.8556 75.2921C99.1513 75.4783 100.327 76.2332 101.472 77.5878C103.063 79.4768 102.871 80.4833 104.741 82.6135C105.332 83.2857 105.851 83.7544 106.593 84.0337C107.738 84.4645 108.804 84.206 109.099 84.144C109.23 84.1164 115.143 84.0888 126.968 84.0337C131.546 84.013 129.745 84.1991 141.893 84.4714C149.067 84.6334 149.167 84.5541 152.133 84.6886C153.876 84.7679 155.626 84.661 157.362 84.7989C158.658 84.8988 159.785 85.0471 161.284 84.6886C161.593 84.6162 164.003 84.044 164.007 83.2684C164.013 82.3446 160.576 81.607 158.122 81.083C154.873 80.3868 153.711 80.4454 150.93 79.9904C147.623 79.4526 147.001 79.0045 142.213 77.805C138.603 76.9019 135.953 76.4021 132.952 75.8368C126.672 74.6544 126.483 74.9716 114.974 73.3239C109.68 72.5656 107.848 72.2312 104.514 72.2312C99.2819 72.2347 95.0435 73.0619 95.0435 73.6548Z" fill="#F36112"/>
<path d="M97.051 55.6582C96.2981 55.8271 95.8169 56.5648 95.6519 57.2783C95.4663 58.0745 95.6038 58.8811 95.7825 59.6636C96.0953 61.0424 96.3153 62.4212 96.391 63.8379C96.5388 66.7057 96.2088 69.5805 95.3253 72.314C95.1535 72.8448 95.5247 73.4411 96.0472 73.5859C96.6041 73.741 97.1438 73.3963 97.3156 72.862C98.1578 70.2596 98.5291 67.4917 98.4878 64.7582C98.4672 63.3656 98.3263 61.9765 98.0856 60.6081C97.9688 59.9462 97.79 59.2982 97.6697 58.6364C97.6216 58.3641 97.5941 58.0539 97.6422 57.8264C97.6422 57.8229 97.7144 57.5368 97.7075 57.6092C97.7247 57.4127 97.7797 57.6126 97.601 57.6506C98.1441 57.5299 98.4638 56.8991 98.3228 56.3786C98.1681 55.8168 97.5975 55.5376 97.051 55.6582Z" fill="#DD8919"/>
<path d="M95.9716 73.7962C101.85 73.8065 108.36 74.7406 112.293 79.6112C113.224 80.7659 113.908 82.1068 114.28 83.5442C114.445 84.1888 115.442 83.9165 115.273 83.2684C114.562 80.5005 112.767 78.1876 110.512 76.4917C107.962 74.5717 104.847 73.5721 101.719 73.1274C99.8147 72.8551 97.8931 72.7655 95.9716 72.7621C95.3081 72.7586 95.3081 73.7927 95.9716 73.7962Z" fill="#CC3E00"/>
<path d="M95.5075 74.0822C98.3263 74.7751 100.873 76.5089 102.506 78.9218C103.328 80.1386 103.847 81.5415 104.778 82.6859C105.796 83.9406 107.257 84.4094 108.814 84.5576C110.856 84.7541 112.925 84.6403 114.95 84.3335C115.603 84.2336 115.325 83.2374 114.675 83.3374C112.884 83.6097 111.059 83.6855 109.251 83.5614C108.477 83.5097 107.68 83.4132 106.961 83.0995C106.281 82.8065 105.741 82.3033 105.315 81.7001C104.503 80.5488 103.998 79.2182 103.17 78.0738C102.324 76.9122 101.303 75.9057 100.134 75.0715C98.8247 74.1408 97.3397 73.4652 95.7826 73.0826C95.1363 72.9241 94.8613 73.9237 95.5075 74.0822Z" fill="#CC3E00"/>
<path d="M98.1991 74.4683C98.9003 74.5269 99.4641 75.013 99.9488 75.4817C100.468 75.9816 100.963 76.5193 101.588 76.8916C102.737 77.5706 103.63 78.4186 104.074 79.7146C104.387 79.5802 104.703 79.4492 105.016 79.3148C103.843 77.0432 102.541 74.6614 100.186 73.4377C100.052 73.7514 99.9213 74.0685 99.7872 74.3822C102.2 75.1267 104.613 75.8713 107.027 76.6158C107.676 76.8157 107.9 75.8609 107.302 75.6196C105.933 75.0612 104.562 74.5028 103.194 73.9478C103.101 74.2788 103.012 74.6131 102.919 74.944C105.476 75.7265 107.907 76.8743 110.131 78.3669C111.052 78.9839 112.238 79.6939 112.698 80.7591C112.949 81.3381 112.753 81.9552 112.908 82.5515C113.059 83.1375 113.482 83.5097 114.073 83.589C114.029 83.2512 113.981 82.9134 113.936 82.5722C112.018 82.8583 110.045 82.7445 108.171 82.2447C106.587 81.8207 104.648 81.0865 104.38 79.232C104.091 79.401 103.806 79.5664 103.517 79.7353C104.902 80.8694 105.404 82.8548 107.082 83.6683C109.196 84.6886 111.385 83.4511 113.145 82.2999C112.936 82.2723 112.729 82.2447 112.52 82.2206C112.544 82.2413 112.561 82.1792 112.561 82.1792C112.819 82.3274 113.077 82.4756 113.338 82.6273C113.664 80.1145 111.234 78.5495 109.337 77.5189C107.133 76.3263 104.758 75.4645 102.307 74.9647C101.843 74.8682 101.389 75.4645 101.805 75.8299C103.809 77.5913 105.335 79.8353 106.205 82.3653C106.535 82.2723 106.868 82.1827 107.198 82.0896C106.312 79.9421 105.425 77.7981 104.538 75.6506C104.376 75.2577 103.84 75.1129 103.596 75.5266C102.988 76.5572 103.321 77.9429 104.335 78.5771C105.49 79.2975 106.291 80.2661 106.576 81.6277C106.889 81.4933 107.205 81.3623 107.518 81.2278C107.068 80.4971 106.618 79.7663 106.167 79.0356C105.896 79.2458 105.628 79.4527 105.356 79.6629C105.964 80.4109 106.569 81.1555 107.178 81.9035C107.57 82.3826 108.23 81.7725 107.989 81.2761C107.147 79.5595 106.305 77.8429 105.466 76.1263C105.232 76.3607 104.995 76.5986 104.761 76.833C107.412 78.1014 110.241 79.4561 111.87 82.031C111.973 81.7794 112.076 81.5243 112.179 81.2727C110.701 81.6932 109.175 81.6897 107.7 81.2554C107.154 81.0969 106.762 81.9483 107.302 82.1999C108.398 82.7066 109.629 83.0237 110.846 82.9479C111.262 82.9203 111.695 82.8272 111.99 82.5101C112.348 82.1241 112.289 81.5725 111.987 81.1727C111.653 80.7349 111.145 80.3971 110.715 80.0628C110.23 79.6836 109.739 79.3182 109.233 78.9735C108.209 78.2703 107.137 77.6361 106.033 77.0674C105.538 76.8123 104.943 77.4741 105.408 77.8808C106.652 78.9701 107.649 80.3213 108.274 81.8586C108.587 81.7242 108.903 81.5932 109.216 81.4588C108.618 80.5005 108.02 79.5388 107.418 78.5806C107.123 78.1083 106.263 78.4082 106.477 78.9804C106.862 80.0076 107.243 81.0348 107.628 82.0655C107.831 82.6032 108.608 82.5308 108.642 81.9276C108.683 81.1072 108.728 80.2868 108.769 79.4664C108.45 79.5526 108.13 79.6388 107.807 79.7284C108.422 80.6936 109.034 81.6622 109.649 82.6273C110.007 83.1926 110.835 82.6997 110.54 82.1068C110.083 81.1865 109.625 80.2661 109.172 79.3458C108.979 79.5974 108.783 79.8525 108.591 80.1041C109.34 80.4006 110.021 80.8418 110.612 81.3899C110.732 81.0969 110.856 80.8004 110.976 80.5074C110.67 80.504 110.361 80.5005 110.055 80.4936C109.567 80.4867 109.429 81.0452 109.691 81.3761C109.962 81.7173 110.23 82.0586 110.502 82.4033C110.746 82.1585 110.987 81.9172 111.231 81.6725C110.969 81.4036 110.708 81.1348 110.45 80.8659C109.986 80.3868 109.258 81.121 109.722 81.5967C109.983 81.8655 110.244 82.1344 110.502 82.4033C110.976 82.8927 111.633 82.1792 111.231 81.6725C110.959 81.3313 110.691 80.99 110.419 80.6453C110.299 80.9383 110.175 81.2347 110.055 81.5277C110.361 81.5312 110.67 81.5346 110.976 81.5415C111.413 81.5484 111.671 80.9659 111.341 80.6591C110.612 79.98 109.787 79.4699 108.866 79.108C108.412 78.9287 108.103 79.5044 108.285 79.8663C108.742 80.7866 109.199 81.707 109.653 82.6273C109.948 82.455 110.248 82.2792 110.543 82.1068C109.928 81.1417 109.316 80.1731 108.701 79.2079C108.422 78.7667 107.766 78.9563 107.738 79.4699C107.697 80.2903 107.652 81.1106 107.611 81.931C107.948 81.8862 108.285 81.838 108.625 81.7931C108.24 80.7659 107.858 79.7388 107.473 78.7081C107.161 78.8425 106.844 78.9735 106.532 79.108C107.13 80.0662 107.728 81.0279 108.329 81.9862C108.625 82.4584 109.502 82.1516 109.271 81.5863C108.573 79.8835 107.525 78.3669 106.14 77.1535C105.93 77.4258 105.724 77.6947 105.514 77.967C107.154 78.8081 108.725 79.7974 110.172 80.9452C110.502 81.2072 110.839 81.4657 111.138 81.7621C111.248 81.869 111.241 81.8414 111.069 81.8897C110.897 81.9379 110.715 81.9276 110.54 81.9276C109.601 81.9207 108.673 81.7104 107.824 81.3175C107.69 81.6311 107.559 81.9483 107.425 82.2619C109.068 82.7411 110.808 82.748 112.451 82.2792C112.76 82.1895 112.939 81.8069 112.76 81.5208C111.028 78.7805 108.109 77.3052 105.284 75.954C104.813 75.7299 104.345 76.1849 104.579 76.6606C105.421 78.3772 106.263 80.0938 107.102 81.8104C107.374 81.6001 107.642 81.3933 107.913 81.183C107.305 80.435 106.7 79.6905 106.092 78.9425C105.72 78.4841 104.978 79.0769 105.28 79.5699C105.731 80.3006 106.181 81.0314 106.631 81.7621C106.944 82.2723 107.693 81.9345 107.573 81.3623C107.333 80.2041 106.707 79.1183 105.803 78.3496C105.418 78.0222 104.833 77.8085 104.541 77.3914C104.263 76.995 104.242 76.471 104.49 76.0574C104.177 76.016 103.861 75.9747 103.548 75.9333C104.435 78.0808 105.322 80.2248 106.208 82.3722C106.456 82.9686 107.425 82.7411 107.202 82.0965C106.274 79.4044 104.672 76.9846 102.534 75.106C102.365 75.3956 102.2 75.6817 102.032 75.9712C104.246 76.4228 106.394 77.1639 108.405 78.2049C110.089 79.0769 112.602 80.3627 112.307 82.6377C112.255 83.0375 112.778 83.265 113.083 83.0858C113.637 82.7548 113.764 81.9345 113.248 81.5036C113.08 81.3588 112.826 81.2899 112.623 81.4243C111.128 82.4033 109.048 83.7441 107.274 82.6101C106.635 82.2033 106.208 81.5312 105.796 80.9142C105.342 80.2351 104.882 79.5423 104.242 79.0218C103.826 78.6805 103.307 79.0046 103.379 79.525C103.682 81.6242 105.762 82.6446 107.58 83.1754C109.732 83.8027 111.99 83.9199 114.204 83.589C114.455 83.5511 114.603 83.2478 114.572 83.0203C114.534 82.7445 114.324 82.6066 114.067 82.5722C113.816 82.5377 113.867 81.8931 113.871 81.7656C113.874 81.4795 113.871 81.1968 113.812 80.9176C113.706 80.373 113.413 79.8835 113.063 79.463C112.313 78.553 111.244 77.8774 110.261 77.2431C108.072 75.8264 105.679 74.7303 103.187 73.9685C102.537 73.7686 102.314 74.7234 102.912 74.9647C104.28 75.5231 105.652 76.0815 107.02 76.6365C107.113 76.3056 107.202 75.9712 107.295 75.6403C104.882 74.8958 102.468 74.1512 100.055 73.4067C99.5019 73.2378 99.1341 74.0788 99.6566 74.3511C101.853 75.4921 103.025 77.743 104.115 79.8559C104.38 80.3695 105.249 80.0145 105.057 79.4561C104.558 77.998 103.565 76.833 102.224 76.085C101.496 75.6748 100.98 75.0267 100.358 74.4821C99.7288 73.9272 99.031 73.5239 98.1853 73.4549C97.5356 73.3791 97.5391 74.4132 98.1991 74.4683Z" fill="#CC3E00"/>
<path d="M156.42 69.6357C154.712 69.5047 152.976 70.1424 151.748 71.3419C150.532 72.5277 149.727 74.3373 150.03 76.0505C150.325 77.7326 152.051 78.9253 153.443 79.687C154.846 80.4557 156.382 80.8659 157.922 81.2382C159.6 81.6449 161.119 81.9931 162.501 82.9444C163.305 83.4994 164.306 82.7514 164.34 81.8862C164.453 78.9563 162.57 76.5675 160.971 74.3063C160.576 73.7479 160.184 73.1895 159.789 72.6345C159.407 72.1003 159.022 71.5487 158.51 71.1282C157.245 70.0872 155.767 70.1631 154.241 70.4043C154.457 71.1903 154.674 71.9796 154.89 72.7655C155.671 72.6414 156.451 72.5208 157.235 72.3967C158.218 72.2416 158.311 70.9696 157.774 70.3492C157.252 69.746 156.386 69.5529 155.626 69.7253C154.966 69.8735 154.419 70.3216 153.955 70.7939C153.007 71.7556 152.017 72.9758 151.614 74.2856C151.157 75.7782 151.965 77.0673 153.216 77.8222C154.388 78.5289 155.702 79.0528 156.963 79.5733C157.668 79.8628 158.383 80.1351 159.101 80.3868C159.943 80.6832 160.834 80.9762 161.662 80.4661C162.181 80.1455 162.498 79.3389 162.099 78.7908C161.098 77.412 160.102 76.0298 159.101 74.651C158.634 74.0064 158.17 73.3618 157.702 72.7207C157.152 71.9589 156.588 71.2316 155.55 71.2937C154.553 71.3557 153.928 72.1589 153.515 72.9896C153.123 73.7824 152.931 74.682 153.371 75.5024C153.818 76.3331 154.777 76.5744 155.592 76.8915C156.379 77.1983 157.169 77.5051 157.957 77.8119C158.173 77.026 158.39 76.2366 158.606 75.4507C157.589 75.0922 156.685 74.4339 155.928 73.5204C155.533 74.2029 155.138 74.8854 154.739 75.5679C155.155 75.6265 155.574 75.6851 155.99 75.7403C156.643 75.8299 157.303 75.5817 157.493 74.8854C157.651 74.3132 157.297 73.4687 156.64 73.3791C156.224 73.3205 155.805 73.2619 155.389 73.2067C154.842 73.1309 154.309 73.2584 154.01 73.7686C153.718 74.2684 153.852 74.8303 154.203 75.2542C155.193 76.4503 156.503 77.3017 157.957 77.8119C158.579 78.0325 159.294 77.5637 159.459 76.957C159.648 76.2642 159.222 75.692 158.606 75.4507C158.029 75.2267 157.448 74.9992 156.87 74.7751C156.582 74.6614 156.293 74.5511 156.004 74.4373C155.829 74.3684 155.403 74.2581 155.378 74.1822C155.433 74.2167 155.471 74.265 155.488 74.3339C155.568 74.4925 155.581 74.4959 155.53 74.3408C155.537 74.4373 155.478 74.5648 155.55 74.4442C155.65 74.2856 155.733 74.0202 155.846 73.8272C155.887 73.7548 155.942 73.7031 155.946 73.6652C156.011 73.5962 156.011 73.5962 155.942 73.6617C155.805 73.7445 155.667 73.7548 155.53 73.6997C155.323 73.6514 155.344 73.5893 155.423 73.7272C155.341 73.5825 155.592 73.9616 155.588 73.9582C157.053 75.9815 158.517 78.0049 159.985 80.0317C160.129 79.4733 160.277 78.9149 160.421 78.3565C160.438 78.3462 160.617 78.322 160.617 78.3186C160.61 78.3324 160.253 78.2083 160.205 78.1911C159.895 78.0876 159.586 77.9773 159.28 77.867C158.665 77.643 158.056 77.4086 157.451 77.1535C156.368 76.6985 155.21 76.2332 154.23 75.5782C154.162 75.53 154.162 75.5334 154.234 75.5886C154.186 75.5507 154.141 75.5128 154.1 75.4679C154.055 75.4266 154.014 75.3852 153.976 75.3404C154.031 75.4231 154.034 75.43 153.99 75.3576C153.955 75.3094 153.928 75.2611 153.9 75.2094C153.938 75.3059 153.945 75.3128 153.918 75.2301C153.914 75.1956 153.911 75.1026 153.918 75.0681C154.028 74.6338 154.392 74.1098 154.684 73.6893C155 73.2412 155.368 72.8172 155.77 72.4243C155.822 72.3726 156.008 72.2037 155.994 72.214C155.877 72.3036 156.31 72.0244 156.173 72.1037C156.111 72.1313 156.142 72.1244 156.262 72.0865C156.221 72.1106 156.176 72.114 156.131 72.1003C156.063 72.0589 155.867 71.89 156.032 72.0796C156.21 71.3971 156.393 70.7146 156.571 70.0321C155.791 70.1562 155.011 70.2768 154.227 70.4009C153.574 70.5043 153.213 71.3212 153.374 71.9072C153.567 72.6035 154.223 72.8655 154.877 72.7621C155.241 72.7035 155.836 72.6311 156.152 72.6656C156.63 72.7173 156.87 72.9069 157.173 73.2343C157.853 73.972 158.5 75.044 159.136 75.9436C160.401 77.7361 161.975 79.656 161.889 81.8862C162.501 81.5346 163.113 81.1796 163.728 80.828C161.466 79.2665 158.682 79.07 156.145 78.2117C155.007 77.8291 153.77 77.1673 152.862 76.2711C152.783 76.1918 152.622 76.0195 152.601 75.9919C152.632 76.0333 152.446 75.7196 152.488 75.8161C152.374 75.5541 152.364 75.3266 152.412 74.9957C152.488 74.4959 152.714 74.0237 153.062 73.5308C153.368 73.0964 153.876 72.6759 154.45 72.4001C155.038 72.114 155.691 72.0313 156.417 72.0865C157.077 72.1382 157.637 71.4867 157.637 70.8628C157.644 70.1527 157.08 69.6839 156.42 69.6357Z" fill="#DD8919"/>
<path d="M63.1779 150.184L150.648 150.667" stroke="black" stroke-width="2" stroke-miterlimit="10"/>
<path d="M89.7291 60.2496C91.3447 61.2182 91.5303 63.2002 91.5578 63.5828C91.5716 63.7793 91.7056 66.3266 89.7291 67.5813C88.031 68.6602 85.5456 68.2914 84.2463 66.5817C83.0913 65.0616 83.2494 62.9761 84.2463 61.5836C85.4838 59.8463 88 59.212 89.7291 60.2496Z" fill="black"/>
<path d="M91.0869 60.7838C91.8741 61.2561 91.9634 62.2212 91.9772 62.4074C91.9841 62.5039 92.0494 63.7448 91.0869 64.3549C90.2584 64.8788 89.0484 64.6996 88.4159 63.8689C87.8522 63.1278 87.9313 62.1109 88.4159 61.4319C89.0175 60.5874 90.2413 60.2771 91.0869 60.7838Z" fill="white"/>
<path d="M90.7638 50.0155C90.7569 49.5192 85.0335 48.6229 79.0144 49.657C77.1031 49.9845 74.1091 50.5257 70.706 52.3939C69.8328 52.8731 65.3297 55.4169 61.8063 60.8425C61.4281 61.425 58.0663 66.6989 57.4166 73.6962C56.98 78.3944 57.1347 80.566 57.1347 80.566C57.3616 83.7889 57.9769 85.1367 57.0625 86.55C56.3853 87.5944 55.7872 87.46 52.5525 89.049C52.2328 89.2076 49.9606 90.3382 47.8053 92.1444C47.1178 92.72 46.2103 93.5439 44.2441 95.9533C42.1816 98.4799 40.0641 101.079 37.8194 105.05C36.7744 106.901 35.6538 108.907 34.6294 111.782C34.3235 112.644 33.636 114.677 32.8385 119.069C32.151 122.853 31.6903 126.707 31.4256 131.178C31.0131 138.106 30.6866 143.57 32.2575 144.032C32.9244 144.228 33.6669 143.442 34.87 142.129C41.6178 134.756 42.6731 133.218 42.6731 133.218C48.4894 124.753 47.4925 126.976 50.8441 121.761C58.0766 110.506 60.9606 102.889 61.8097 103.216C62.4663 103.471 61.2356 108.235 60.3866 111.072C59.7781 113.105 57.5713 120.023 51.3666 128.803C47.2106 134.687 44.3644 138.713 39.2631 143.084C36.9635 145.052 34.5813 146.769 34.9903 147.723C35.3822 148.644 37.9913 147.975 45.9078 147.365C50.1428 147.037 50.0225 147.182 55.2819 146.769C58.9497 146.482 60.8335 146.355 63.3531 146.055C64.5872 145.907 68.3066 145.448 72.7685 144.149C73.5763 143.914 75.2091 143.191 77.1203 142.008C78.5813 141.105 79.6228 140.254 80.3035 139.692C80.7916 139.289 81.2591 138.882 83.5003 136.741C85.1228 135.19 85.9375 134.415 86.2985 134.046C86.8244 133.511 88.1169 132.174 90.4544 129.241C91.9188 127.403 93.7888 124.942 95.8685 121.895C95.8925 121.85 100.475 113.981 100.733 101.069C100.753 100.014 100.722 98.0318 99.6635 97.4975C98.9278 97.1287 98.0891 97.6561 96.6969 98.2111C95.4491 98.7074 94.0466 98.9797 91.2382 99.5209C89.9113 99.776 86.0578 100.517 81.7438 99.4003C77.8835 98.4006 75.3569 96.3531 74.1469 95.3535C68.8222 90.9448 67.0863 85.1918 66.55 83.3339C64.0785 74.7337 65.8144 63.2174 72.9575 57.1542C76.0306 54.5448 81.5169 51.7493 87.316 50.729C89.0656 50.4223 90.7672 50.2878 90.7638 50.0155Z" fill="black"/>
<path d="M33.9969 149.692C33.1891 152.522 31.9344 155.21 31.0132 158.006C29.3666 162.997 29.2738 162.194 28.0638 166.134C25.9875 172.9 26.3794 174.813 26.7129 175.864C26.9019 176.457 27.5929 178.55 29.5385 180.052C30.7622 181 31.7797 181.169 34.4507 181.776C41.4632 183.372 41.1504 183.727 43.5394 183.868C46.781 184.061 48.5719 184.168 50.2941 183.131C52.5972 181.738 53.2641 179.205 54.7147 173.031C55.8732 168.105 56.4507 165.641 57.5404 160.591C60.2182 148.168 62.26 145.173 60.4897 143.47C59.1766 142.208 57.9597 143.708 48.0838 144.087C45.5125 144.187 42.9654 144.662 40.401 144.89C38.4313 145.066 36.9154 145.176 35.6779 146.303C34.65 147.244 34.375 148.375 33.9969 149.692Z" fill="black"/>
</g>
<defs>
<clipPath id="clip0_42_517">
<rect width="198" height="208" fill="white"/>
</clipPath>
</defs>
</svg>
